# xmcd CD database file
#
# Track frame offsets:
#	150
#	17801
#	35951
#	57440
#	74919
#	86590
#	109829
#	130998
#	164885
#	172261
#	178193
#	187001
#	223661
#	240192
#	264204
#	277059
#	297970
#	318607
#
# Disc length: 4678 seconds
#
# Revision: 1
# Processed by: cddbd v1.5.2PL0 Copyright (c) Steve Scherf et al.
# Submitted via: CDex 1.78
#
DISCID=2a124412
DTITLE=Bill Evans - New Jazz Conceptions
DYEAR=1956
DGENRE=Jazz
TTITLE0=I Love You
TTITLE1=Five
TTITLE2=Conception
TTITLE3=Easy Living
TTITLE4=Displacement
TTITLE5=Speak Low
TTITLE6=Our Delight
TTITLE7=No Cover,No Minimum
TTITLE8=I Got it Bad and That Ain't Good
TTITLE9=Waltz For Debby
TTITLE10=My Romance
TTITLE11=No Cover,No Minimum [ Alternate Version ]
TTITLE12=Kimona My House
TTITLE13=Like Someone In Love
TTITLE14=Ev'ry Night About This Time
TTITLE15=I Got it Bad and That Ain't Good
TTITLE16=Mother of Earl
TTITLE17=Indian Summer
EXTD=YEAR: 1956
EXTT0=
EXTT1=
EXTT2=
EXTT3=
EXTT4=
EXTT5=
EXTT6=
EXTT7=
EXTT8=
EXTT9=
EXTT10=
EXTT11=
EXTT12=
EXTT13=
EXTT14=
EXTT15=
EXTT16=
EXTT17=
PLAYORDER=
